<svg width="20" height="20" viewBox="0 0 20 20" fill="none" xmlns="http://www.w3.org/2000/svg">
<path d="M2.75 3C3.15625 3 3.5 3.34375 3.5 3.75V16.25C3.5 16.6875 3.15625 17 2.75 17C2.3125 17 2 16.6875 2 16.25V3.75C2 3.34375 2.3125 3 2.75 3ZM5.5 3C5.75 3 6 3.25 6 3.5V16.5C6 16.7812 5.75 17 5.5 17C5.21875 17 5 16.7812 5 16.5V3.5C5 3.25 5.21875 3 5.5 3ZM7.75 3C8.15625 3 8.5 3.34375 8.5 3.75V16.25C8.5 16.6875 8.15625 17 7.75 17C7.3125 17 7 16.6875 7 16.25V3.75C7 3.34375 7.3125 3 7.75 3ZM11.25 3C11.6562 3 12 3.34375 12 3.75V16.25C12 16.6875 11.6562 17 11.25 17C10.8125 17 10.5 16.6875 10.5 16.25V3.75C10.5 3.34375 10.8125 3 11.25 3ZM16.5 3.75C16.5 3.34375 16.8125 3 17.25 3C17.6562 3 18 3.34375 18 3.75V16.25C18 16.6875 17.6562 17 17.25 17C16.8125 17 16.5 16.6875 16.5 16.25V3.75ZM14.5 3.5C14.5 3.25 14.7188 3 15 3C15.25 3 15.5 3.25 15.5 3.5V16.5C15.5 16.7812 15.25 17 15 17C14.7188 17 14.5 16.7812 14.5 16.5V3.5Z" fill="#334155"/>
</svg>
