<svg width="20" height="20" viewBox="0 0 20 20" fill="none" xmlns="http://www.w3.org/2000/svg">
<path d="M3 4.75C3 4.34375 3.3125 4 3.75 4H16.25C16.6562 4 17 4.34375 17 4.75C17 5.1875 16.6562 5.5 16.25 5.5H3.75C3.3125 5.5 3 5.1875 3 4.75ZM5 9.75C5 9.34375 5.3125 9 5.75 9H14.25C14.6562 9 15 9.34375 15 9.75C15 10.1875 14.6562 10.5 14.25 10.5H5.75C5.3125 10.5 5 10.1875 5 9.75ZM12 14.75C12 15.1875 11.6562 15.5 11.25 15.5H8.75C8.3125 15.5 8 15.1875 8 14.75C8 14.3438 8.3125 14 8.75 14H11.25C11.6562 14 12 14.3438 12 14.75Z" fill="#334155"/>
</svg>
