<svg width="31" height="30" viewBox="0 0 31 30" fill="none" xmlns="http://www.w3.org/2000/svg">
<path d="M11.5453 5.7H26.1758C27.8437 5.7 29.2258 7.08203 29.2258 8.75V20.95C29.2258 22.6656 27.8437 24 26.1758 24H11.5453C10.7352 24 9.97266 23.7141 9.40078 23.1422L2.20469 15.9461C1.91875 15.6602 1.77578 15.2789 1.77578 14.85C1.77578 14.4688 1.91875 14.0875 2.20469 13.8016L9.40078 6.60547C9.97266 6.03359 10.7352 5.7 11.5453 5.7ZM26.9383 8.75C26.9383 8.36875 26.557 7.9875 26.1758 7.9875H11.5453C11.3547 7.9875 11.1164 8.08281 10.9734 8.22578L4.34922 14.85L11.0211 21.5219C11.1641 21.6648 11.3547 21.7125 11.5453 21.7125H26.1758C26.557 21.7125 26.9383 21.3789 26.9383 20.95V8.75ZM22.4109 10.9898C22.8398 11.4664 22.8398 12.1813 22.4109 12.6102L20.1711 14.85L22.4109 17.0898C22.8398 17.5664 22.8398 18.2813 22.4109 18.7102C21.9344 19.1867 21.2195 19.1867 20.7906 18.7102L18.5508 16.4703L16.3109 18.7102C15.8344 19.1867 15.1195 19.1867 14.6906 18.7102C14.2141 18.2813 14.2141 17.5664 14.6906 17.0898L16.9305 14.85L14.6906 12.6102C14.2141 12.1813 14.2141 11.4664 14.6906 10.9898C15.1195 10.5609 15.8344 10.5609 16.3109 10.9898L18.5508 13.2297L20.7906 10.9898C21.2195 10.5609 21.9344 10.5609 22.4109 10.9898Z" fill="#334155"/>
</svg>
