<svg width="16" height="16" viewBox="0 0 16 16" fill="none" xmlns="http://www.w3.org/2000/svg">
<path d="M8.68555 1.38571V2.81428C9.45698 2.9 10.1713 3.04286 10.7141 3.15714C11.0855 3.24286 11.3141 3.61429 11.2284 3.98571C11.1427 4.35714 10.7713 4.58571 10.3998 4.5C9.51412 4.3 8.2284 4.04286 7.14269 4.15714C6.59983 4.18571 6.17126 4.3 5.85698 4.5C5.57126 4.7 5.37126 4.95714 5.28555 5.38571C5.19983 5.7 5.25698 5.92857 5.34269 6.07143C5.39983 6.24286 5.57126 6.38571 5.8284 6.55714C6.37126 6.9 7.19983 7.1 8.14269 7.35714L8.2284 7.38571C9.11412 7.61429 10.1141 7.87143 10.8855 8.32857C11.2855 8.55714 11.6284 8.9 11.857 9.35714C12.1141 9.81429 12.1427 10.3571 12.057 10.9286C11.857 11.9571 11.1141 12.6143 10.1998 12.9571C9.74269 13.1286 9.2284 13.2429 8.68555 13.2714V14.6429C8.68555 15.0429 8.37126 15.3286 7.99983 15.3286C7.59983 15.3286 7.31412 15.0429 7.31412 14.6429V13.2429C7.19983 13.2143 7.11412 13.2143 7.0284 13.1857C6.31412 13.1 5.05698 12.8143 4.28555 12.4714C3.94269 12.3 3.77126 11.9 3.94269 11.5571C4.08555 11.2143 4.48555 11.0714 4.8284 11.2143C5.45698 11.4714 6.57126 11.7571 7.19983 11.8429C8.2284 11.9857 9.08555 11.9 9.71412 11.6714C10.3141 11.4429 10.6284 11.1 10.6855 10.6714C10.7713 10.3571 10.7141 10.1286 10.6284 9.98571C10.5713 9.81429 10.3998 9.64286 10.1427 9.5C9.59983 9.15714 8.79983 8.92857 7.8284 8.7L7.74269 8.67143C6.85698 8.44286 5.85698 8.18571 5.08555 7.72857C4.71412 7.47143 4.34269 7.15714 4.11412 6.7C3.88555 6.21429 3.8284 5.7 3.94269 5.12857C4.08555 4.3 4.51412 3.72857 5.11412 3.35714C5.68555 2.98571 6.37126 2.84286 7.0284 2.78571C7.11412 2.75714 7.19983 2.75714 7.31412 2.75714V1.38571C7.31412 1.01428 7.59983 0.699999 7.99983 0.699999C8.37126 0.699999 8.68555 1.01428 8.68555 1.38571Z" fill="#357838"/>
</svg>
