<svg width="20" height="20" viewBox="0 0 20 20" fill="none" xmlns="http://www.w3.org/2000/svg">
<path d="M3.5 3.74524V14.7452C3.5 15.1827 3.8125 15.4952 4.25 15.4952H17.25C17.6562 15.4952 18 15.839 18 16.2452C18 16.6827 17.6562 16.9952 17.25 16.9952H4.25C3 16.9952 2 15.9952 2 14.7452V3.74524C2 3.33899 2.3125 2.99524 2.75 2.99524C3.15625 2.99524 3.5 3.33899 3.5 3.74524ZM16.7812 7.27649L12.5 11.5265C12.2188 11.839 11.75 11.839 11.4688 11.5265L9 9.05774L6.53125 11.5265C6.21875 11.839 5.75 11.839 5.46875 11.5265C5.15625 11.2452 5.15625 10.7765 5.46875 10.4952L8.46875 7.49524C8.59375 7.33899 8.78125 7.27649 9 7.27649C9.1875 7.27649 9.375 7.33899 9.53125 7.49524L12 9.96399L15.7188 6.24524C16 5.93274 16.4688 5.93274 16.7812 6.24524C17.0625 6.52649 17.0625 6.99524 16.7812 7.27649Z" fill="#357838"/>
</svg>
