<svg width="12" height="16" viewBox="0 0 12 16" fill="none" xmlns="http://www.w3.org/2000/svg">
<path d="M1.6284 0.871428L2.79983 1.87143L3.94269 0.871428C4.19983 0.671428 4.57126 0.671428 4.8284 0.871428L5.99983 1.87143L7.14269 0.871428C7.39983 0.671428 7.77126 0.671428 8.0284 0.871428L9.19983 1.87143L10.3427 0.871428C10.5427 0.699999 10.8284 0.671428 11.0855 0.785713C11.3141 0.899999 11.4855 1.12857 11.4855 1.38571V14.6429C11.4855 14.9286 11.3141 15.1571 11.0855 15.2714C10.8284 15.3857 10.5427 15.3571 10.3427 15.1857L9.19983 14.1857L8.0284 15.1857C7.77126 15.3857 7.39983 15.3857 7.14269 15.1857L5.99983 14.1857L4.8284 15.1857C4.57126 15.3857 4.19983 15.3857 3.94269 15.1857L2.79983 14.1857L1.6284 15.1857C1.4284 15.3571 1.14269 15.3857 0.914118 15.2714C0.656975 15.1571 0.514118 14.9286 0.514118 14.6429V1.38571C0.514118 1.12857 0.656975 0.899999 0.914118 0.785713C1.14269 0.671428 1.4284 0.699999 1.6284 0.871428ZM1.88555 13.1571L2.34269 12.7571C2.59983 12.5571 2.97126 12.5571 3.2284 12.7571L4.39983 13.7571L5.54269 12.7571C5.79983 12.5571 6.17126 12.5571 6.4284 12.7571L7.59983 13.7571L8.74269 12.7571C8.99983 12.5571 9.37126 12.5571 9.6284 12.7571L10.1141 13.1571V2.9L9.6284 3.3C9.37126 3.5 8.99983 3.5 8.74269 3.3L7.59983 2.3L6.4284 3.3C6.17126 3.5 5.79983 3.5 5.54269 3.3L4.39983 2.3L3.2284 3.3C2.97126 3.5 2.59983 3.5 2.34269 3.3L1.88555 2.9V13.1571ZM3.94269 4.81429H8.05698C8.4284 4.81429 8.74269 5.12857 8.74269 5.5C8.74269 5.9 8.4284 6.18571 8.05698 6.18571H3.94269C3.54269 6.18571 3.25698 5.9 3.25698 5.5C3.25698 5.12857 3.54269 4.81429 3.94269 4.81429ZM3.94269 9.84286H8.05698C8.4284 9.84286 8.74269 10.1571 8.74269 10.5286C8.74269 10.9286 8.4284 11.2143 8.05698 11.2143H3.94269C3.54269 11.2143 3.25698 10.9286 3.25698 10.5286C3.25698 10.1571 3.54269 9.84286 3.94269 9.84286ZM3.25698 8.01429C3.25698 7.64286 3.54269 7.32857 3.94269 7.32857H8.05698C8.4284 7.32857 8.74269 7.64286 8.74269 8.01429C8.74269 8.41429 8.4284 8.7 8.05698 8.7H3.94269C3.54269 8.7 3.25698 8.41429 3.25698 8.01429Z" fill="#64748B"/>
</svg>
