<svg width="24" height="20" viewBox="0 0 24 20" fill="none" xmlns="http://www.w3.org/2000/svg">
<path d="M24 5.64177L12 0L0 5.64177V8.96327L12 14.6056L24 8.96327V5.64234V5.64177ZM12 11.2841L3.53408 7.30454L12 3.32496L20.4659 7.30454L12 11.2841Z" fill="white"/>
<path d="M14.5994 14.2982L16.1677 15.0324L12.0001 16.9905L7.87751 15.0538L9.40021 14.3409L6.20301 12.8443L4.68848 13.5554V14.7521V16.5585L11.961 19.9631V20L12.0001 19.9815L12.0387 20V19.9631L19.3112 16.5585V15.0088V13.5133L17.7966 12.8016L14.5994 14.2982Z" fill="white"/>
<path d="M0 13.5728L2.53042 14.7626V11.3165L0 10.1267V13.5728Z" fill="#FFAA00"/>
</svg>
