<svg width="32" height="27" viewBox="0 0 32 27" fill="none" xmlns="http://www.w3.org/2000/svg">
<path d="M32 7.61504L16 0L0 7.61504V12.0983L16 19.7141L32 12.0983V7.61582V7.61504ZM16 15.2309L4.71211 9.85939L16 4.48791L27.2879 9.85939L16 15.2309Z" fill="#000A1C"/>
<path d="M19.4656 19.2994L21.5566 20.2904L15.9998 22.9334L10.503 20.3192L12.5333 19.3571L8.27036 17.3369L6.25098 18.2968V19.9121V22.3503L15.9477 26.9456V26.9955L15.9998 26.9705L16.0512 26.9955V26.9456L25.7479 22.3503V20.2585V18.2399L23.7285 17.2793L19.4656 19.2994Z" fill="#000A1C"/>
<path d="M0 18.3203L3.3739 19.9263V15.2749L0 13.6689V18.3203Z" fill="#FFAA00"/>
</svg>
