<svg width="20" height="20" viewBox="0 0 20 20" fill="none" xmlns="http://www.w3.org/2000/svg">
<path d="M10.75 2.75V3.09375C10.9375 3.125 11.125 3.1875 11.3125 3.21875C11.7188 3.34375 11.9375 3.75 11.8438 4.15625C11.7188 4.53125 11.3125 4.78125 10.9062 4.6875C10.5625 4.59375 10.25 4.53125 9.96875 4.53125C9.75 4.5 9.5 4.5625 9.375 4.65625C9.3125 4.6875 9.28125 4.71875 9.25 4.75C9.25 4.75 9.25 4.78125 9.25 4.84375C9.25 4.875 9.25 4.90625 9.34375 4.9375C9.53125 5.03125 9.78125 5.125 10.1875 5.25H10.2188C10.5625 5.375 11.0312 5.5 11.4062 5.75C11.8438 6 12.2188 6.46875 12.2188 7.15625C12.25 7.84375 11.875 8.34375 11.4062 8.65625C11.1875 8.78125 10.9688 8.875 10.7188 8.9375V9.25C10.7188 9.6875 10.4062 10 9.96875 10C9.5625 10 9.21875 9.6875 9.21875 9.25V8.90625C8.9375 8.84375 8.65625 8.75 8.4375 8.65625C8.375 8.65625 8.3125 8.625 8.25 8.59375C7.84375 8.46875 7.625 8.03125 7.78125 7.65625C7.90625 7.25 8.3125 7.03125 8.71875 7.1875C8.8125 7.21875 8.875 7.21875 8.9375 7.25C9.375 7.40625 9.6875 7.5 10 7.5C10.25 7.53125 10.4688 7.46875 10.5938 7.375C10.6562 7.34375 10.6875 7.3125 10.7188 7.28125C10.7188 7.28125 10.75 7.25 10.7188 7.15625C10.7188 7.125 10.7188 7.09375 10.5938 7.03125C10.4375 6.90625 10.1562 6.8125 9.75 6.6875H9.6875C9.375 6.5625 8.90625 6.4375 8.5625 6.21875C8.15625 5.96875 7.75 5.53125 7.71875 4.84375C7.71875 4.125 8.125 3.65625 8.59375 3.375C8.8125 3.25 9 3.15625 9.21875 3.125V2.75C9.21875 2.34375 9.5625 2 9.96875 2C10.4062 2 10.7188 2.34375 10.7188 2.75H10.75ZM6.84375 13C6.59375 13 6.34375 13.0938 6.15625 13.2188L3.65625 14.875C3.53125 14.9688 3.375 15 3.25 15H1.75C1.3125 15 1 14.6875 1 14.25C1 13.8438 1.3125 13.5 1.75 13.5H3L5.3125 11.9688C5.78125 11.6875 6.3125 11.5 6.84375 11.5H11.75C12.8438 11.5 13.75 12.4062 13.75 13.5C13.75 13.5312 13.75 13.5625 13.75 13.5625L15.75 12.3125C16.0938 12.125 16.4688 12 16.875 12H17.0938C18.1562 12 19 12.8438 19 13.9062C19 14.5312 18.6562 15.125 18.125 15.4688L15.1562 17.4062C14.5312 17.8125 13.8125 18.0312 13.0938 18.0312H1.75C1.3125 18.0312 1 17.6875 1 17.2812C1 16.8438 1.3125 16.5312 1.75 16.5312H13.0938C13.5312 16.5312 13.9688 16.4062 14.3125 16.1562L17.3125 14.2188C17.4062 14.1562 17.5 14.0312 17.5 13.9062C17.5 13.6875 17.3125 13.5 17.0938 13.5H16.875C16.75 13.5 16.6562 13.5312 16.5625 13.5938L13.625 15.4062C13.5 15.4688 13.375 15.5 13.2188 15.5H11.75H11H9C8.5625 15.5 8.25 15.1875 8.25 14.75C8.25 14.3438 8.5625 14 9 14H11H11.75C12 14 12.25 13.7812 12.25 13.5C12.25 13.25 12 13 11.75 13H6.84375Z" fill="#47A04B"/>
</svg>
